Coordinates
version=1
nRows=54
nColumns=12
inDegrees=yes

Units are S.I. units (second, meters, Newtons, ...)
Angles are in degrees

endheader
time	SC_y	SC_z	SC_x	AC_y	AC_z	AC_x	GH_y	GH_z	GH_yy	EL_x	PS_y
       0.0              -26.99          24.14          63.03          60.76         -18.15          17.98          172.4          39.47          90.27          137.5          150.9
   0.01256              -26.99          24.14          63.03          60.76         -18.15          17.98          172.4          39.47          90.25          137.5          150.9
   0.02512              -26.99          24.13          63.03          60.76         -18.15          17.97          172.4          39.48          90.23          137.5          150.9
   0.03768              -26.99          24.13          63.02          60.76         -18.15          17.97          172.4          39.48          90.22          137.5          150.8
   0.05024              -26.99          24.13          63.02          60.76         -18.14          17.96          172.4          39.48           90.2          137.5          150.8
    0.0628               -27.0          24.12          63.02          60.76         -18.14          17.95          172.4          39.49          90.18          137.5          150.8
   0.07536               -27.0          24.12          63.01          60.76         -18.14          17.95          172.4           39.5          90.15          137.5          150.8
   0.08792               -27.0          24.11          63.01          60.76         -18.14          17.94          172.4           39.5          90.13          137.4          150.7
    0.1005               -27.0          24.11           63.0          60.76         -18.13          17.93          172.4          39.51          90.11          137.4          150.7
     0.113               -27.0          24.11           63.0          60.77         -18.13          17.93          172.3          39.51          90.08          137.4          150.7
    0.1256              -27.01           24.1          62.99          60.77         -18.13          17.92          172.3          39.52          90.05          137.4          150.6
    0.1382              -27.01           24.1          62.98          60.77         -18.12          17.91          172.3          39.53          90.02          137.4          150.6
    0.1507              -27.01          24.09          62.98          60.77         -18.12           17.9          172.3          39.54          89.99          137.4          150.6
    0.1633              -27.01          24.08          62.97          60.77         -18.12          17.89          172.3          39.55          89.95          137.3          150.5
    0.1758              -27.02          24.08          62.96          60.77         -18.11          17.87          172.3          39.56          89.91          137.3          150.5
    0.1884              -27.02          24.07          62.95          60.78         -18.11          17.86          172.2          39.57          89.87          137.3          150.4
     0.201              -27.02          24.06          62.94          60.78          -18.1          17.85          172.2          39.58          89.83          137.3          150.3
    0.2135              -27.03          24.05          62.93          60.78          -18.1          17.83          172.2          39.59          89.78          137.3          150.3
    0.2261              -27.03          24.04          62.92          60.78         -18.09          17.82          172.2          39.61          89.72          137.2          150.2
    0.2386              -27.04          24.03          62.91          60.78         -18.08           17.8          172.2          39.62          89.66          137.2          150.1
    0.2512              -27.04          24.02           62.9          60.79         -18.08          17.78          172.1          39.64           89.6          137.2          150.1
    0.2638              -27.05          24.01          62.88          60.79         -18.07          17.76          172.1          39.66          89.53          137.1          150.0
    0.2763              -27.05           24.0          62.87          60.79         -18.06          17.73          172.0          39.68          89.45          137.1          149.9
    0.2889              -27.06          23.98          62.85           60.8         -18.05           17.7          172.0           39.7          89.36          137.0          149.7
    0.3014              -27.07          23.96          62.83           60.8         -18.04          17.67          172.0          39.72          89.26          137.0          149.6
     0.314              -27.08          23.94          62.81          60.81         -18.03          17.64          171.9          39.75          89.15          136.9          149.5
    0.3266              -27.09          23.92          62.78          60.81         -18.01           17.6          171.9          39.78          89.03          136.8          149.3
    0.3391               -27.1           23.9          62.76          60.82          -18.0          17.56          171.8          39.82          88.89          136.8          149.1
    0.3517              -27.11          23.87          62.73          60.83         -17.98          17.51          171.7          39.86          88.74          136.7          148.9
    0.3643              -27.12          23.84          62.69          60.83         -17.96          17.46          171.6           39.9          88.56          136.6          148.7
    0.3768              -27.14          23.81          62.65          60.84         -17.94           17.4          171.5          39.95          88.36          136.5          148.5
    0.3894              -27.16          23.77           62.6          60.85         -17.91          17.33          171.4          40.01          88.13          136.3          148.2
    0.4019              -27.18          23.72          62.55          60.87         -17.88          17.25          171.3          40.08          87.87          136.2          147.8
    0.4145               -27.2          23.67          62.49          60.88         -17.85          17.15          171.2          40.16          87.56          136.0          147.4
    0.4271              -27.23           23.6          62.42           60.9         -17.81          17.04          171.0          40.25          87.19          135.8          147.0
    0.4396              -27.27          23.53          62.33          60.92         -17.76          16.91          170.8          40.36          86.77          135.6          146.4
    0.4522              -27.31          23.44          62.23          60.94          -17.7          16.75          170.6          40.49          86.26          135.3          145.8
    0.4647              -27.35          23.34          62.11          60.97         -17.63          16.57          170.3          40.64          85.65          135.0          145.0
    0.4773              -27.41          23.21          61.96           61.0         -17.55          16.34          169.9          40.83          84.92          134.6          144.0
    0.4899              -27.48          23.05          61.78          61.04         -17.45          16.07          169.5          41.05          84.02          134.1          142.9
    0.5024              -27.57          22.86          61.55          61.09         -17.32          15.73          169.0          41.34          82.91          133.5          141.5
     0.515              -27.68          22.62          61.28          61.15         -17.17           15.3          168.3          41.69          81.53          132.7          139.7
    0.5275              -27.82          22.32          60.93          61.23         -16.97          14.77          167.5          42.13          79.79          131.8          137.4
    0.5401               -28.0          21.93          60.48          61.33         -16.72          14.09          166.5          42.69          77.58          130.6          134.6
    0.5527              -28.22          21.44          59.91          61.46          -16.4          13.22          165.2          43.41          74.75          129.0          131.0
    0.5652              -28.51          20.81          59.18          61.62         -15.99           12.1          163.5          44.34          71.11          127.0          126.3
    0.5778              -28.88           20.0          58.25          61.83         -15.46          10.68          161.3          45.52          66.47          124.5          120.3
    0.5903              -29.34          18.99          57.07           62.1          -14.8          8.889          158.6           47.0          60.63          121.3          112.8
    0.6029               -29.9          17.75          55.64          62.42          -14.0          6.706          155.2          48.81          53.52          117.4          103.7
    0.6155              -30.56          16.32          53.98          62.79         -13.07          4.176          151.4          50.91          45.27          112.8          93.09
     0.628              -31.26          14.77          52.19          63.19         -12.06          1.436          147.2          53.18          36.34          107.9          81.62
    0.6406              -31.97          13.22          50.39          63.59         -11.05         -1.303          143.0          55.45          27.41          103.0          70.15
    0.6531              -32.62          11.79          48.73          63.97         -10.12         -3.834          139.2          57.54          19.17           98.5          59.55
    0.6657              -33.19          10.55           47.3          64.29         -9.312         -6.016          135.8          59.35          12.05           94.6          50.41
